<svg width="24" height="24" viewBox="0 0 24 24" fill="none" xmlns="http://www.w3.org/2000/svg">
<g clip-path="url(#clip0_3387_11388)">
<path d="M23.7798 13.3465C23.5252 12.5832 23.0798 11.9087 22.5007 11.375C22.4899 11.363 22.4778 11.3534 22.4655 11.3429C21.6306 10.5887 20.5285 10.125 19.3175 10.125H16.3242L14.6484 8.11416V4.875C14.6484 4.46156 14.3121 4.125 13.8984 4.125H6.39844C5.98481 4.125 5.64844 4.46156 5.64844 4.875V10.125H4.80248L3.88364 7.062C3.76228 6.65733 3.38255 6.375 2.9603 6.375C2.17022 6.375 1.5037 6.99206 1.44309 7.7798L1.17609 11.25H1.01405C0.467859 11.25 0.0234375 11.6942 0.0234375 12.2406V13.6344C0.0234375 14.1808 0.467813 14.625 1.01405 14.625H1.59689L0.421875 16.5051C0.280875 16.7307 0.273562 17.0153 0.402469 17.2478C0.531375 17.4803 0.776766 17.625 1.04264 17.625H1.86862C2.4637 17.625 3.03628 17.4075 3.48052 17.012L4.90027 15.75H8.54316L6.16134 18.7273C5.99016 18.9412 5.95753 19.2276 6.07622 19.4744C6.19486 19.7216 6.43894 19.875 6.71306 19.875H8.68087C10.2058 19.875 11.6611 19.3034 12.7788 18.2655L14.6802 16.5H22.3545C23.2747 16.5 24.0234 15.7511 24.0234 14.8308C24.0234 14.3198 23.9389 13.8289 23.7877 13.3679C23.7849 13.3606 23.783 13.3535 23.7798 13.3465ZM22.8812 13.125H18.3979C18.2992 13.125 18.2395 13.0701 18.2128 13.0375C18.1859 13.0045 18.1437 12.9353 18.1631 12.8386C18.2604 12.3526 18.6907 12 19.1862 12H22.075C22.4062 12.3227 22.6787 12.7037 22.8812 13.125ZM15.3477 10.125H14.6484V9.28589L15.3477 10.125ZM10.8984 4.875V7.17445L10.3565 6.813C10.2935 6.77091 10.221 6.75 10.1484 6.75C10.0759 6.75 10.0034 6.77086 9.94041 6.813L9.39844 7.17445V4.875H10.8984ZM22.3545 15.75H15.4879L16.4037 14.8996C16.5553 14.759 16.5641 14.5217 16.4233 14.3697C16.2819 14.2181 16.045 14.2093 15.8932 14.3503L12.2683 17.7162C11.2899 18.6248 10.0159 19.125 8.68087 19.125H6.80367L10.8163 14.1094C10.9457 13.9475 10.9195 13.7117 10.7577 13.582C10.5965 13.4528 10.36 13.4791 10.2307 13.6406L9.1432 15H5.74411L6.27272 14.5302C6.42745 14.3928 6.44137 14.1555 6.30384 14.001C6.16598 13.8461 5.92941 13.8318 5.7743 13.9699L2.98214 16.4517C2.6752 16.7245 2.27967 16.875 1.86862 16.875L1.05802 16.9025L2.59153 14.4488C2.66367 14.3331 2.66752 14.1874 2.60142 14.0684C2.53533 13.949 2.40989 13.875 2.27348 13.875H1.01405C0.881297 13.875 0.773437 13.767 0.773437 13.6344V12.2406C0.773437 12.108 0.881297 12 1.01405 12H1.52344C1.71938 12 1.88231 11.8491 1.89736 11.6539L2.19089 7.83764C2.22164 7.43813 2.55966 7.125 2.9603 7.125C3.05405 7.125 3.13828 7.18762 3.16519 7.27734L4.16419 10.6077C4.21181 10.7662 4.35792 10.875 4.52344 10.875H7.52344C7.73053 10.875 7.89844 10.7073 7.89844 10.5C7.89844 10.2927 7.73053 10.125 7.52344 10.125H6.39844V4.875H8.64844V7.875C8.64844 8.01342 8.72461 8.1405 8.84658 8.2057C8.96817 8.27091 9.11611 8.26322 9.23147 8.18705L10.1484 7.57584L11.0654 8.18705C11.1282 8.22881 11.2007 8.25005 11.2734 8.25005C11.334 8.25005 11.395 8.23542 11.4503 8.20575C11.5723 8.14055 11.6484 8.01347 11.6484 7.87505V4.87505H13.8984V10.125H9.02344C8.81634 10.125 8.64844 10.2928 8.64844 10.5C8.64844 10.7073 8.81634 10.875 9.02344 10.875H19.3174C19.9147 10.875 20.4795 11.012 20.9877 11.25H19.1862C18.3344 11.25 17.5948 11.8561 17.4278 12.6915C17.3694 12.9833 17.4439 13.2825 17.6327 13.5128C17.8213 13.7428 18.1002 13.875 18.3979 13.875H23.1518C23.2283 14.1818 23.2734 14.5008 23.2734 14.8309C23.2734 15.3376 22.8611 15.75 22.3545 15.75Z" fill="black"/>
</g>
<defs>
<clipPath id="clip0_3387_11388">
<rect width="24" height="24" fill="white"/>
</clipPath>
</defs>
</svg>
