<svg width="24" height="24" viewBox="0 0 24 24" fill="none" xmlns="http://www.w3.org/2000/svg">
<path d="M4.47065 3.00229C4.41827 3.00565 4.36718 3.01996 4.32068 3.04431C4.27419 3.06867 4.23332 3.1025 4.20073 3.14365C4.16814 3.18479 4.14455 3.23234 4.13149 3.28317C4.11843 3.33401 4.11618 3.38696 4.1249 3.43872V4.85999C4.12425 4.87273 4.12425 4.88551 4.1249 4.89825V5.98572C4.12484 6.00202 4.12584 6.01835 4.1279 6.03452H3.3749C3.27544 6.03452 3.18006 6.07405 3.10973 6.14438C3.03941 6.2147 2.9999 6.31006 2.9999 6.40952V8.28452H1.8749C1.77544 8.28452 1.68006 8.32405 1.60973 8.39438C1.53941 8.4647 1.4999 8.56006 1.4999 8.65952V10.5345H1.1249C1.06215 10.5345 1.00042 10.5503 0.945341 10.5804C0.890267 10.6104 0.843615 10.6538 0.80966 10.7065C0.775704 10.7593 0.75553 10.8197 0.750985 10.8823C0.74644 10.9449 0.75767 11.0077 0.783646 11.0648L3.8744 17.8665C3.53436 17.7699 3.21747 17.6054 2.9429 17.3828C2.90515 17.3491 2.86099 17.3234 2.81306 17.3072C2.76513 17.2911 2.71443 17.2848 2.664 17.2887C2.61358 17.2927 2.56448 17.3068 2.51964 17.3302C2.47481 17.3536 2.43518 17.3859 2.40314 17.425C2.3711 17.4642 2.3473 17.5093 2.33318 17.5579C2.31906 17.6065 2.31491 17.6574 2.32099 17.7076C2.32706 17.7578 2.34323 17.8063 2.36852 17.8501C2.39381 17.8939 2.4277 17.9321 2.46815 17.9625C3.04415 18.435 3.7394 18.6772 4.4429 18.7117C4.45514 18.7123 4.4674 18.7123 4.47965 18.7117C5.20694 18.739 5.92341 18.5292 6.52115 18.114C7.07655 18.4987 7.735 18.7071 8.41062 18.7121C9.08623 18.717 9.74766 18.5183 10.3086 18.1417C10.8629 18.5134 11.5152 18.7119 12.1825 18.7119C12.8499 18.7119 13.5021 18.5134 14.0564 18.1417C14.6107 18.5143 15.2635 18.7133 15.9314 18.7133C16.5993 18.7133 17.2521 18.5143 17.8064 18.1417C18.2806 18.4612 18.8288 18.6539 19.3986 18.7013C19.4431 18.7131 19.4894 18.7166 19.5351 18.7117C20.369 18.7527 21.1883 18.4816 21.8331 17.9513C21.8948 17.902 21.9393 17.8344 21.9603 17.7583C21.9813 17.6822 21.9778 17.6014 21.9502 17.5274C21.9226 17.4534 21.8724 17.3901 21.8066 17.3463C21.7409 17.3026 21.663 17.2807 21.5841 17.2838C21.4998 17.2869 21.4189 17.3183 21.3546 17.373C20.9918 17.6724 20.555 17.8682 20.0901 17.94L23.2161 11.0625C23.2421 11.0054 23.2534 10.9427 23.2488 10.8801C23.2443 10.8175 23.2241 10.7571 23.1901 10.7043C23.1562 10.6516 23.1095 10.6082 23.0545 10.5781C22.9994 10.548 22.9376 10.5322 22.8749 10.5322H20.9999V7.90723C20.9999 7.80777 20.9604 7.71242 20.8901 7.64209C20.8197 7.57176 20.7244 7.53223 20.6249 7.53223H18.7499V4.90723C18.7499 4.80777 18.7104 4.71242 18.6401 4.64209C18.5697 4.57176 18.4744 4.53223 18.3749 4.53223H13.1249C13.0254 4.53223 12.9301 4.57176 12.8597 4.64209C12.7894 4.71242 12.7499 4.80777 12.7499 4.90723V7.53223H10.1249C10.0254 7.53223 9.93006 7.57176 9.85973 7.64209C9.7894 7.71242 9.7499 7.80777 9.7499 7.90723V10.5322H7.4999V8.65723C7.4999 8.55777 7.46039 8.46242 7.39006 8.39209C7.31974 8.32176 7.22435 8.28223 7.1249 8.28223H5.9999V6.40723C5.9999 6.30777 5.96039 6.21242 5.89006 6.14209C5.81974 6.07176 5.72435 6.03223 5.6249 6.03223H4.8719C4.87399 6.01581 4.87499 5.99934 4.8749 5.98279V5.14728L6.8684 4.48279C6.94342 4.45813 7.00875 4.41034 7.05506 4.34637C7.10137 4.2824 7.1263 4.20544 7.1263 4.12646C7.1263 4.04749 7.10137 3.97053 7.05506 3.90655C7.00875 3.84258 6.94342 3.79489 6.8684 3.77023L4.6184 3.02023C4.58311 3.00807 4.5462 3.00126 4.5089 3C4.49615 2.99935 4.48339 2.99935 4.47065 3V3.00229ZM4.8749 3.89923L5.5634 4.12875L4.8749 4.35901V3.89923ZM13.4999 5.28452H17.9999V7.53452H13.4999V5.28452ZM3.7499 6.78452H5.2499V8.28452H3.7499V6.78452ZM10.4999 8.28452H14.9999V10.5345H10.4999V8.28452ZM15.7499 8.28452H20.2499V10.5345H15.7499V8.28452ZM2.2499 9.03451H6.7499V10.5345H2.2499V9.03451ZM1.70615 11.2845H22.2936L21.4409 13.161C21.4284 13.1604 21.4159 13.1604 21.4034 13.161H19.1249C19.0254 13.161 18.9301 13.2005 18.8597 13.2708C18.7894 13.3412 18.7499 13.4365 18.7499 13.536V15.036C18.7499 15.1354 18.7894 15.2309 18.8597 15.3012C18.9301 15.3715 19.0254 15.411 19.1249 15.411H20.4186L19.2659 17.946C18.8769 17.8803 18.5078 17.7278 18.1859 17.4998C18.1545 17.4337 18.1045 17.3782 18.042 17.3403C17.9795 17.3023 17.9072 17.2834 17.8341 17.286C17.8217 17.2854 17.8091 17.2854 17.7966 17.286C17.7226 17.2802 17.6486 17.2964 17.5838 17.3328C17.519 17.3691 17.4665 17.4238 17.4329 17.49C16.9946 17.7989 16.4718 17.9654 15.9356 17.9668C15.3993 17.9681 14.8757 17.8042 14.4359 17.4975C14.4045 17.4314 14.3545 17.3761 14.292 17.3381C14.2295 17.3001 14.1572 17.2812 14.0841 17.2838C14.0717 17.2832 14.0591 17.2832 14.0466 17.2838C13.9727 17.2779 13.8987 17.294 13.8339 17.3302C13.7692 17.3664 13.7166 17.421 13.6829 17.487C13.2456 17.7954 12.7241 17.9618 12.1891 17.9637C11.654 17.9655 11.1313 17.8028 10.6919 17.4975C10.661 17.4306 10.6111 17.3744 10.5484 17.3357C10.4857 17.297 10.413 17.2777 10.3394 17.28C10.3264 17.2794 10.3134 17.2794 10.3004 17.28C10.2999 17.28 10.2994 17.28 10.2989 17.28C10.2235 17.2735 10.148 17.2899 10.0821 17.3271C10.0163 17.3643 9.9632 17.4206 9.9299 17.4885C9.46584 17.8147 8.90825 17.981 8.34134 17.9623C7.77443 17.9436 7.22899 17.741 6.7874 17.385C6.75133 17.3488 6.70825 17.3203 6.66078 17.3014C6.61332 17.2824 6.56249 17.2733 6.5114 17.2747C6.42668 17.2778 6.34552 17.3096 6.28115 17.3647C5.83265 17.736 5.29115 17.9273 4.7444 17.9565L3.22715 14.619H7.1219C7.22135 14.619 7.31673 14.5795 7.38706 14.5092C7.45739 14.4389 7.4969 14.3434 7.4969 14.244C7.4969 14.1445 7.45739 14.0491 7.38706 13.9788C7.31673 13.9085 7.22135 13.869 7.1219 13.869H2.90465C2.8989 13.8688 2.89315 13.8688 2.8874 13.869L1.70615 11.274V11.2845ZM19.4999 13.9095H21.0996L20.7599 14.6595H19.4999V13.9095ZM6.2489 18.8153C6.21972 18.8164 6.19077 18.8209 6.16265 18.8287C6.10196 18.8327 6.04314 18.8514 5.99127 18.8831C5.9394 18.9149 5.89603 18.9588 5.8649 19.011C5.39744 19.3478 4.83182 19.5207 4.25595 19.5029C3.68008 19.4852 3.1262 19.2777 2.6804 18.9128C2.60352 18.8496 2.5047 18.8196 2.40568 18.8293C2.30666 18.839 2.21555 18.8876 2.1524 18.9645C2.08924 19.0414 2.05921 19.1402 2.06892 19.2393C2.07862 19.3383 2.12727 19.4293 2.20415 19.4925C3.36215 20.442 4.99415 20.4938 6.21665 19.674C6.77098 20.0459 7.4234 20.2444 8.0909 20.2444C8.7584 20.2444 9.41081 20.0459 9.96515 19.674C10.5195 20.0466 11.1722 20.2455 11.8401 20.2455C12.508 20.2455 13.1608 20.0466 13.7151 19.674C14.2791 20.0533 14.9448 20.2527 15.6245 20.246C16.3041 20.2393 16.9657 20.0268 17.5221 19.6365C18.1257 20.0621 18.8523 20.2776 19.5902 20.25C20.3282 20.2224 21.0367 19.9531 21.6066 19.4835C21.668 19.4341 21.7122 19.3666 21.733 19.2906C21.7538 19.2147 21.7502 19.1341 21.7227 19.0603C21.6951 18.9865 21.645 18.9233 21.5795 18.8795C21.514 18.8358 21.4364 18.8139 21.3576 18.8167C21.2729 18.8199 21.1918 18.8516 21.1274 18.9067C20.6585 19.2956 20.0688 19.5091 19.4596 19.5104C18.8504 19.5118 18.2598 19.301 17.7891 18.9142C17.7247 18.8572 17.6426 18.8241 17.5566 18.8205C17.5354 18.8187 17.5141 18.8187 17.4929 18.8205C17.4085 18.8236 17.3277 18.855 17.2634 18.9098C16.8215 19.275 16.2717 19.4847 15.6988 19.5067C15.1259 19.5286 14.5617 19.3616 14.0931 19.0312C14.0614 18.966 14.0114 18.9114 13.9493 18.874C13.8871 18.8366 13.8154 18.818 13.7429 18.8205C13.7137 18.8216 13.6848 18.8262 13.6566 18.834C13.5985 18.8387 13.5423 18.8568 13.4925 18.8871C13.4426 18.9173 13.4005 18.9587 13.3694 19.008C12.9302 19.3265 12.4025 19.4999 11.86 19.504C11.3175 19.5082 10.7872 19.3429 10.3431 19.0312C10.3114 18.966 10.2614 18.9114 10.1993 18.874C10.1371 18.8366 10.0654 18.818 9.9929 18.8205C9.96372 18.8216 9.93477 18.8262 9.90665 18.834C9.84854 18.8387 9.79232 18.8568 9.74245 18.8871C9.69259 18.9173 9.65046 18.9587 9.6194 19.008C9.18136 19.3254 8.65539 19.4987 8.11445 19.5037C7.57351 19.5086 7.04444 19.3451 6.60065 19.0357C6.56946 18.9694 6.51953 18.9137 6.45702 18.8754C6.3945 18.8372 6.32215 18.8181 6.2489 18.8205V18.8153Z" fill="black"/>
</svg>
