<svg width="24" height="24" viewBox="0 0 24 24" fill="none" xmlns="http://www.w3.org/2000/svg">
<g clip-path="url(#clip0_3387_13846)">
<path d="M23.7825 13.35L23.25 12.4875L20.8125 8.24997C20.6691 8.01946 20.469 7.82952 20.2314 7.69823C19.9938 7.56695 19.7265 7.49869 19.455 7.49997H16.065V5.00247C16.0651 4.71718 15.9539 4.44312 15.755 4.23861C15.5561 4.03409 15.2852 3.91529 15 3.90747H1.095C0.804588 3.90747 0.52607 4.02284 0.320718 4.22819C0.115366 4.43354 7.98121e-09 4.71206 7.98121e-09 5.00247V13.815V17.4975C-2.00235e-05 17.5937 0.0376674 17.686 0.104973 17.7547C0.172279 17.8234 0.263839 17.863 0.36 17.865H3.075C3.16345 18.4812 3.47112 19.0449 3.94157 19.4526C4.41201 19.8604 5.0137 20.0848 5.63625 20.0848C6.2588 20.0848 6.86049 19.8604 7.33093 19.4526C7.80138 19.0449 8.10905 18.4812 8.1975 17.865H17.58C17.6625 18.4868 17.9682 19.0574 18.44 19.4708C18.9118 19.8841 19.5177 20.112 20.145 20.112C20.7723 20.112 21.3782 19.8841 21.85 19.4708C22.3218 19.0574 22.6275 18.4868 22.71 17.865H23.64C23.7362 17.863 23.8277 17.8234 23.895 17.7547C23.9623 17.686 24 17.5937 24 17.4975V14.1525C24 13.8704 23.9249 13.5934 23.7825 13.35ZM20.1825 8.61747L22.335 12.3075H18.6525V8.24997H19.455C19.5973 8.24583 19.7383 8.27728 19.8654 8.34145C19.9924 8.40563 20.1014 8.5005 20.1825 8.61747ZM0.75 5.00247C0.75 4.905 0.788719 4.81153 0.857638 4.74261C0.926558 4.67369 1.02003 4.63497 1.1175 4.63497H15C15.0975 4.63497 15.1909 4.67369 15.2599 4.74261C15.3288 4.81153 15.3675 4.905 15.3675 5.00247V13.455H0.75V5.00247ZM0.75 14.1825H15.3375V17.1375H8.205C8.20139 17.1076 8.20139 17.0774 8.205 17.0475V16.9425C8.196 16.8966 8.18346 16.8514 8.1675 16.8075C8.17082 16.7725 8.17082 16.7374 8.1675 16.7025L8.1225 16.5675L8.0175 16.5C7.99558 16.4461 7.97053 16.3935 7.9425 16.3425C7.94386 16.3225 7.94386 16.3024 7.9425 16.2825L7.8225 16.08L7.7775 16.02L7.68 15.885L7.6125 15.8175L7.5 15.6825L7.425 15.615L7.3275 15.525L7.245 15.4575L7.125 15.375L7.035 15.315L6.9225 15.2475L6.825 15.195L6.705 15.135L6.6075 15.0975L6.4725 15.045L6.375 15H6.2325H6.135H5.97H5.8875H5.64H5.385H5.3025H5.1375H5.04H4.8975H4.8L4.665 15.0525L4.5675 15.09L4.4475 15.15L4.35 15.2025L4.2375 15.27L4.1475 15.33L4.0425 15.4125L3.96 15.48L3.8625 15.57L3.7875 15.6375L3.69 15.75L3.6225 15.8175L3.525 15.9525L3.48 16.0125L3.36 16.215C3.35864 16.2349 3.35864 16.255 3.36 16.275L3.285 16.4325V16.5225L3.24 16.6575C3.23668 16.6924 3.23668 16.7275 3.24 16.7625C3.22404 16.8064 3.2115 16.8516 3.2025 16.8975V17.0025C3.20611 17.0324 3.20611 17.0626 3.2025 17.0925H0.75V14.1825ZM5.6625 19.365C5.41475 19.3709 5.16829 19.3276 4.93749 19.2373C4.70668 19.1471 4.49614 19.0118 4.31813 18.8394C4.14013 18.667 3.99822 18.4609 3.90068 18.2331C3.80314 18.0052 3.75192 17.7603 3.75 17.5125C3.75 17.0152 3.94754 16.5383 4.29917 16.1866C4.65081 15.835 5.12772 15.6375 5.625 15.6375C6.12228 15.6375 6.59919 15.835 6.95083 16.1866C7.30246 16.5383 7.5 17.0152 7.5 17.5125C7.49606 18.0039 7.29859 18.4739 6.95041 18.8207C6.60223 19.1674 6.1314 19.363 5.64 19.365H5.6625ZM20.1675 19.365C19.6755 19.365 19.2035 19.17 18.8549 18.8228C18.5063 18.4756 18.3095 18.0045 18.3075 17.5125C18.3075 17.0152 18.505 16.5383 18.8567 16.1866C19.2083 15.835 19.6852 15.6375 20.1825 15.6375C20.6798 15.6375 21.1567 15.835 21.5083 16.1866C21.86 16.5383 22.0575 17.0152 22.0575 17.5125V17.5575C22.0507 17.8018 21.9958 18.0423 21.896 18.2654C21.7962 18.4885 21.6534 18.6897 21.4758 18.8575C21.2982 19.0254 21.0892 19.1566 20.8609 19.2437C20.6325 19.3307 20.3893 19.372 20.145 19.365H20.1675ZM23.295 17.115H22.7325C22.7361 17.0851 22.7361 17.0549 22.7325 17.025C22.7367 16.9901 22.7367 16.9548 22.7325 16.92C22.7325 16.875 22.7325 16.83 22.7325 16.785C22.7325 16.74 22.7325 16.7175 22.7325 16.68C22.7183 16.6338 22.7007 16.5886 22.68 16.545C22.68 16.545 22.68 16.485 22.68 16.455L22.605 16.2975V16.2375C22.5669 16.1673 22.5243 16.0996 22.4775 16.035L22.4325 15.975L22.335 15.84L22.275 15.7725L22.1775 15.66L22.1025 15.5925L21.9975 15.5025L21.9225 15.435L21.81 15.3525L21.72 15.2925L21.6075 15.225L21.5175 15.1725L21.39 15.1125L21.2925 15.075L21 15.045H20.9025L20.745 15H20.6475H20.4825H20.4H20.145H19.89H19.8075H19.6425H19.5525L19.4025 15.0375H19.3125L19.1775 15.09L19.08 15.1275L18.9525 15.1875L18.8625 15.24L18.7425 15.315L18.66 15.3675L18.5475 15.45L18.4725 15.5175L18.3675 15.6075L18.2925 15.675L18.195 15.7875L18.135 15.855L18.03 15.9975L17.9925 16.05C17.9475 16.11 17.91 16.185 17.865 16.2525V16.305L17.7825 16.47C17.7856 16.4974 17.7856 16.5251 17.7825 16.5525C17.7825 16.605 17.745 16.65 17.73 16.695C17.7333 16.7274 17.7333 16.7601 17.73 16.7925C17.73 16.845 17.73 16.89 17.73 16.935V17.04C17.7264 17.0699 17.7264 17.1001 17.73 17.13H16.23V8.24997H17.925V12.675C17.924 12.7225 17.9326 12.7698 17.9503 12.8139C17.968 12.8581 17.9945 12.8982 18.0282 12.9318C18.0618 12.9654 18.1019 12.9919 18.146 13.0097C18.1902 13.0274 18.2374 13.036 18.285 13.035H22.785L23.1825 13.7175C23.2594 13.8497 23.3008 13.9995 23.3025 14.1525L23.295 17.115Z" fill="#231F20"/>
<path d="M5.63281 16.2225C5.38064 16.2225 5.13413 16.2973 4.92446 16.4374C4.71479 16.5775 4.55137 16.7766 4.45487 17.0096C4.35836 17.2425 4.33312 17.4989 4.38231 17.7462C4.43151 17.9936 4.55294 18.2207 4.73125 18.3991C4.90956 18.5774 5.13675 18.6988 5.38407 18.748C5.6314 18.7972 5.88776 18.7719 6.12073 18.6754C6.35371 18.5789 6.55284 18.4155 6.69294 18.2058C6.83303 17.9962 6.90781 17.7497 6.90781 17.4975C6.90781 17.1593 6.77348 16.835 6.53437 16.5959C6.29527 16.3568 5.97096 16.2225 5.63281 16.2225ZM5.63281 18.045C5.48761 18.045 5.34835 17.9873 5.24567 17.8846C5.143 17.782 5.08531 17.6427 5.08531 17.4975C5.08531 17.3523 5.143 17.213 5.24567 17.1103C5.34835 17.0077 5.48761 16.95 5.63281 16.95C5.77802 16.95 5.91728 17.0077 6.01995 17.1103C6.12263 17.213 6.18031 17.3523 6.18031 17.4975C6.18031 17.6427 6.12263 17.782 6.01995 17.8846C5.91728 17.9873 5.77802 18.045 5.63281 18.045ZM20.1453 16.2225C19.8931 16.2225 19.6466 16.2973 19.437 16.4374C19.2273 16.5775 19.0639 16.7766 18.9674 17.0096C18.8709 17.2425 18.8456 17.4989 18.8948 17.7462C18.944 17.9936 19.0654 18.2207 19.2438 18.3991C19.4221 18.5774 19.6492 18.6988 19.8966 18.748C20.1439 18.7972 20.4003 18.7719 20.6332 18.6754C20.8662 18.5789 21.0653 18.4155 21.2054 18.2058C21.3455 17.9962 21.4203 17.7497 21.4203 17.4975C21.4183 17.1599 21.2834 16.8368 21.0447 16.5981C20.806 16.3594 20.4829 16.2245 20.1453 16.2225ZM20.1453 18.045C20.037 18.045 19.9312 18.0129 19.8411 17.9527C19.7511 17.8926 19.6809 17.8071 19.6395 17.707C19.5981 17.607 19.5872 17.4969 19.6083 17.3907C19.6295 17.2845 19.6816 17.1869 19.7582 17.1103C19.8347 17.0338 19.9323 16.9816 20.0385 16.9605C20.1447 16.9394 20.2548 16.9502 20.3548 16.9917C20.4549 17.0331 20.5404 17.1033 20.6005 17.1933C20.6607 17.2834 20.6928 17.3892 20.6928 17.4975C20.6928 17.6427 20.6351 17.782 20.5325 17.8846C20.4298 17.9873 20.2905 18.045 20.1453 18.045ZM13.8378 5.48999H2.25031C2.15285 5.48999 2.05937 5.52871 1.99045 5.59763C1.92153 5.66655 1.88281 5.76002 1.88281 5.85749V12.24C1.88478 12.3362 1.92436 12.4277 1.99307 12.495C2.06177 12.5623 2.15413 12.6 2.25031 12.6H13.8378C13.934 12.6 14.0264 12.5623 14.0951 12.495C14.1638 12.4277 14.2034 12.3362 14.2053 12.24V5.85749C14.2053 5.76002 14.1666 5.66655 14.0977 5.59763C14.0288 5.52871 13.9353 5.48999 13.8378 5.48999ZM13.5003 11.8725H2.58781V6.21749H13.5003V11.8725Z" fill="#231F20"/>
</g>
<defs>
<clipPath id="clip0_3387_13846">
<rect width="24" height="24" fill="white"/>
</clipPath>
</defs>
</svg>
