<svg width="71" height="25" viewBox="0 0 71 25" fill="none" xmlns="http://www.w3.org/2000/svg">
<path fill-rule="evenodd" clip-rule="evenodd" d="M24.3806 8.07788H27.8418C29.0002 8.07788 29.8727 8.39811 30.3646 9.00359C30.8125 9.55498 30.9608 10.3423 30.8059 11.3444C30.4623 13.6348 29.1465 14.7906 26.8665 14.7906H25.7709C25.5345 14.7906 25.3326 14.9708 25.2962 15.2163L24.9186 17.7241C24.8817 17.9696 24.6802 18.1499 24.4434 18.1499H22.791C22.6134 18.1499 22.4778 17.9844 22.5056 17.801L23.9054 8.50309C23.9424 8.25814 24.1438 8.07788 24.3806 8.07788ZM26.1846 12.7745C27.1022 12.7745 28.0511 12.7745 28.2404 11.4734C28.3097 11.0164 28.254 10.6855 28.0723 10.4629C27.7677 10.0896 27.1781 10.0896 26.5531 10.0896H26.3137C26.172 10.0896 26.0505 10.1978 26.0288 10.3446L25.6624 12.7745H26.1846Z" fill="#253B80"/>
<path fill-rule="evenodd" clip-rule="evenodd" d="M36.5315 11.4316H38.1889C38.366 11.4316 38.5012 11.5976 38.4728 11.7805L37.577 17.7233C37.5396 17.9688 37.3392 18.1491 37.1018 18.1491H35.6089C35.4322 18.1491 35.2966 17.9837 35.3244 17.7992L35.3983 17.3167C35.3983 17.3167 34.58 18.3108 33.1042 18.3108C32.2444 18.3108 31.5217 18.051 31.0166 17.4275C30.466 16.7494 30.2408 15.777 30.3992 14.7601C30.7039 12.7216 32.2682 11.2683 34.0997 11.2683C34.8983 11.2683 35.6984 11.4507 36.0573 11.9963L36.1732 12.1723L36.2465 11.6866C36.2683 11.5398 36.3903 11.4316 36.5315 11.4316ZM34.0077 16.4684C34.9662 16.4684 35.7177 15.8025 35.8777 14.8105C35.95 14.3302 35.8498 13.8943 35.5973 13.5821C35.3453 13.273 34.9627 13.1091 34.492 13.1091C33.5481 13.1091 32.7839 13.7968 32.6347 14.7803C32.5567 15.2628 32.6498 15.6959 32.8948 16.0002C33.1418 16.3067 33.5264 16.4684 34.0077 16.4684Z" fill="#253B80"/>
<path d="M47.0132 11.4324H45.3477C45.1888 11.4324 45.0395 11.5151 44.9494 11.6535L42.6523 15.1983L41.6785 11.7918C41.6173 11.5787 41.4296 11.4324 41.217 11.4324H39.5803C39.3814 11.4324 39.2433 11.636 39.3065 11.8321L41.1411 17.4723L39.4163 20.023C39.2807 20.2239 39.4173 20.5002 39.6517 20.5002H41.3152C41.4731 20.5002 41.6209 20.4196 41.7104 20.2839L47.2501 11.9069C47.3827 11.7065 47.2465 11.4324 47.0132 11.4324Z" fill="#253B80"/>
<path fill-rule="evenodd" clip-rule="evenodd" d="M49.0676 8.07788H52.5293C53.6877 8.07788 54.5597 8.39811 55.0511 9.00359C55.499 9.55498 55.6483 10.3423 55.4929 11.3444C55.1488 13.6348 53.8335 14.7906 51.553 14.7906H50.4579C50.2215 14.7906 50.0196 14.9708 49.9832 15.2163L49.5859 17.8519C49.5601 18.0237 49.4189 18.1499 49.2539 18.1499H47.4775C47.3009 18.1499 47.1653 17.9844 47.1931 17.801L48.5929 8.50309C48.6299 8.25814 48.8313 8.07788 49.0676 8.07788ZM50.8714 12.7745C51.7894 12.7745 52.7383 12.7745 52.9271 11.4734C52.9965 11.0164 52.9413 10.6855 52.7596 10.4629C52.4549 10.0896 51.8648 10.0896 51.2403 10.0896H51.0009C50.8587 10.0896 50.7383 10.1978 50.7165 10.3446L50.3496 12.7745H50.8714Z" fill="#179BD7"/>
<path fill-rule="evenodd" clip-rule="evenodd" d="M61.2178 11.4316H62.8742C63.0519 11.4316 63.1875 11.5976 63.1602 11.7805L62.2639 17.7233C62.2269 17.9688 62.0255 18.1491 61.7892 18.1491H60.2967C60.1191 18.1491 59.9835 17.9837 60.0113 17.7992L60.0852 17.3167C60.0852 17.3167 59.2668 18.3108 57.7911 18.3108C56.9312 18.3108 56.2096 18.051 55.7035 17.4275C55.1528 16.7494 54.9287 15.777 55.0866 14.7601C55.3912 12.7216 56.955 11.2683 58.7866 11.2683C59.5852 11.2683 60.3848 11.4507 60.7436 11.9963L60.86 12.1723L60.9334 11.6866C60.9546 11.5398 61.0756 11.4316 61.2178 11.4316ZM58.6946 16.4684C59.6532 16.4684 60.4057 15.8025 60.5646 14.8105C60.638 14.3302 60.5378 13.8943 60.2843 13.5821C60.0322 13.273 59.6496 13.1091 59.179 13.1091C58.2351 13.1091 57.4719 13.7968 57.3216 14.7803C57.2447 15.2628 57.3368 15.6959 57.5817 16.0002C57.8287 16.3067 58.2144 16.4684 58.6946 16.4684Z" fill="#179BD7"/>
<path d="M64.8285 8.33343L63.4079 17.8015C63.3801 17.985 63.5157 18.1504 63.6924 18.1504H65.1205C65.3579 18.1504 65.5593 17.9701 65.5958 17.7246L66.9966 8.42727C67.0244 8.24383 66.8888 8.07788 66.7122 8.07788H65.1129C64.9717 8.07841 64.8503 8.18657 64.8285 8.33343Z" fill="#179BD7"/>
<path d="M8.13051 19.9569L8.3952 18.1956L7.8056 18.1813H4.99023L6.94677 5.18481C6.95284 5.14558 6.97258 5.109 7.00143 5.08302C7.03028 5.05704 7.06722 5.04272 7.10568 5.04272H11.8528C13.4287 5.04272 14.5163 5.38629 15.0842 6.0644C15.3504 6.38251 15.5199 6.71494 15.6019 7.08077C15.6879 7.46462 15.6894 7.92323 15.6054 8.48258L15.5994 8.52341V8.88181L15.8656 9.03981C16.0898 9.1644 16.2679 9.30702 16.4045 9.47032C16.6323 9.74231 16.7796 10.088 16.8418 10.4978C16.9061 10.9193 16.8848 11.4209 16.7796 11.9887C16.6581 12.6419 16.4617 13.2108 16.1965 13.6763C15.9526 14.1052 15.6419 14.461 15.2729 14.7367C14.9207 14.9986 14.5022 15.1974 14.029 15.3247C13.5705 15.4498 13.0477 15.5129 12.4743 15.5129H12.1048C11.8406 15.5129 11.5841 15.6125 11.3826 15.7912C11.1807 15.9736 11.0471 16.2228 11.0061 16.4953L10.9783 16.6538L10.5106 19.7581L10.4894 19.8721C10.4838 19.9081 10.4742 19.9261 10.46 19.9383C10.4474 19.9495 10.4292 19.9569 10.4115 19.9569H8.13051Z" fill="#253B80"/>
<path d="M16.1204 8.56421C16.1062 8.65911 16.09 8.75614 16.0718 8.85581C15.4458 12.223 13.304 13.3863 10.5686 13.3863H9.17583C8.8413 13.3863 8.55941 13.6408 8.50728 13.9864L7.79421 18.7242L7.59228 20.0672C7.55837 20.2941 7.72538 20.4987 7.94401 20.4987H10.4142C10.7067 20.4987 10.9552 20.2761 11.0013 19.9738L11.0256 19.8424L11.4907 16.7503L11.5205 16.5806C11.5661 16.2774 11.8151 16.0547 12.1076 16.0547H12.477C14.8703 16.0547 16.7439 15.0367 17.2915 12.091C17.5202 10.8605 17.4018 9.83295 16.7965 9.1103C16.6133 8.8924 16.3861 8.7116 16.1204 8.56421Z" fill="#179BD7"/>
<path d="M15.4641 8.29082C15.3684 8.26166 15.2697 8.23515 15.1685 8.2113C15.0668 8.18797 14.9625 8.16729 14.8552 8.14926C14.4797 8.08564 14.0683 8.05542 13.6275 8.05542H9.90671C9.81511 8.05542 9.72806 8.07716 9.65012 8.11639C9.47856 8.20281 9.35103 8.373 9.32016 8.58137L8.52863 13.8334L8.50586 13.9866C8.55799 13.6409 8.83988 13.3865 9.1744 13.3865H10.5672C13.3026 13.3865 15.4443 12.2227 16.0704 8.856C16.0891 8.75633 16.1048 8.6593 16.1189 8.5644C15.9605 8.47639 15.789 8.4011 15.6043 8.33695C15.5587 8.32104 15.5116 8.30567 15.4641 8.29082Z" fill="#222D65"/>
<path d="M9.3206 8.58167C9.35148 8.37331 9.47901 8.20312 9.65057 8.11723C9.72902 8.07799 9.81556 8.05625 9.90716 8.05625H13.6279C14.0687 8.05625 14.4802 8.08647 14.8557 8.1501C14.963 8.16812 15.0672 8.1888 15.169 8.21213C15.2702 8.23599 15.3689 8.2625 15.4645 8.29166C15.5121 8.3065 15.5592 8.32188 15.6052 8.33725C15.7899 8.40141 15.9615 8.47722 16.1199 8.5647C16.3061 7.32035 16.1184 6.47311 15.4762 5.70593C14.7681 4.86134 13.4903 4.49976 11.8551 4.49976H7.10799C6.77397 4.49976 6.48904 4.75425 6.43742 5.10046L4.46013 18.2306C4.42116 18.4903 4.61247 18.7247 4.86247 18.7247H7.79323L8.52908 13.8337L9.3206 8.58167Z" fill="#253B80"/>
</svg>
