<svg width="210" height="210" viewBox="0 0 210 210" fill="none" xmlns="http://www.w3.org/2000/svg">
<rect width="210" height="210" rx="8" fill="#EFEFF0"/>
<mask id="mask0_206_4735" style="mask-type:luminance" maskUnits="userSpaceOnUse" x="95" y="95" width="20" height="20">
<path fill-rule="evenodd" clip-rule="evenodd" d="M95.0005 95.0002H114.96V114.95H95.0005V95.0002Z" fill="white"/>
</mask>
<g mask="url(#mask0_206_4735)">
<path fill-rule="evenodd" clip-rule="evenodd" d="M100.65 96.5C98.1295 96.5 96.5005 98.227 96.5005 100.899V109.051C96.5005 111.724 98.1295 113.45 100.65 113.45H109.3C111.827 113.45 113.46 111.724 113.46 109.051V100.899C113.46 98.227 111.827 96.5 109.3 96.5H100.65ZM109.3 114.95H100.65C97.2705 114.95 95.0005 112.579 95.0005 109.051V100.899C95.0005 97.371 97.2705 95 100.65 95H109.3C112.685 95 114.96 97.371 114.96 100.899V109.051C114.96 112.579 112.685 114.95 109.3 114.95Z" fill="#61646B"/>
</g>
<path fill-rule="evenodd" clip-rule="evenodd" d="M98.2813 110.18C98.0953 110.18 97.9103 110.112 97.7653 109.974C97.4643 109.69 97.4523 109.214 97.7373 108.915L99.2653 107.302C100.074 106.443 101.439 106.401 102.302 107.211L103.26 108.183C103.527 108.453 103.961 108.458 104.229 108.194C104.33 108.075 106.508 105.43 106.508 105.43C106.922 104.928 107.506 104.618 108.155 104.554C108.805 104.497 109.436 104.686 109.939 105.099C109.982 105.134 110.021 105.168 112.217 107.423C112.506 107.719 112.501 108.194 112.204 108.483C111.908 108.774 111.432 108.765 111.143 108.469C111.143 108.469 109.094 106.366 108.948 106.224C108.793 106.097 108.544 106.023 108.299 106.047C108.05 106.072 107.826 106.191 107.667 106.384C105.343 109.203 105.315 109.23 105.277 109.267C104.419 110.109 103.034 110.095 102.191 109.235C102.191 109.235 101.261 108.291 101.245 108.272C101.014 108.058 100.602 108.072 100.355 108.333L98.8253 109.946C98.6773 110.102 98.4793 110.18 98.2813 110.18Z" fill="#61646B"/>
<path fill-rule="evenodd" clip-rule="evenodd" d="M101.558 101.129C101.005 101.129 100.555 101.579 100.555 102.133C100.555 102.687 101.005 103.138 101.559 103.138C102.113 103.138 102.564 102.687 102.564 102.133C102.564 101.58 102.113 101.13 101.558 101.129ZM101.559 104.638C100.178 104.638 99.0547 103.514 99.0547 102.133C99.0547 100.752 100.178 99.6289 101.559 99.6289C102.941 99.6299 104.064 100.754 104.064 102.133C104.064 103.514 102.94 104.638 101.559 104.638Z" fill="#61646B"/>
</svg>
